<svg width="88" height="88" viewBox="0 0 88 88" fill="none" xmlns="http://www.w3.org/2000/svg">
<path d="M44 65.3333C55.506 65.3333 64.8334 56.0059 64.8334 44.5C64.8334 32.994 55.506 23.6666 44 23.6666C32.4941 23.6666 23.1667 32.994 23.1667 44.5C23.1667 56.0059 32.4941 65.3333 44 65.3333Z" fill="url(#paint0_linear_403_2)"/>
<path d="M63.5792 5.34582L58.6833 17.1667C57.0875 21.0167 51.3125 18.625 52.9083 14.775L57.8042 2.95416C59.4 -0.895843 65.175 1.49582 63.5792 5.34582ZM35.0542 74.2083L30.1583 86.0292C28.5625 89.8792 22.7875 87.4875 24.3833 83.6375L29.2792 71.8167C30.875 67.9667 36.65 70.3583 35.0542 74.2083ZM85.5208 30.6708L73.7 35.5667C69.85 37.1625 67.4584 31.3875 71.3083 29.7917L83.1292 24.8958C86.9792 23.3 89.3708 29.075 85.5208 30.6708ZM16.6583 59.1958L4.83751 64.0917C0.987507 65.6875 -1.40416 59.9125 2.44584 58.3167L14.2667 53.4208C18.1167 51.825 20.5083 57.6 16.6583 59.1958ZM83.1292 64.0958L71.3083 59.2C67.4584 57.6042 69.85 51.8292 73.7 53.425L85.5208 58.3208C89.3708 59.9167 86.9792 65.6917 83.1292 64.0958ZM14.2667 35.5708L2.44584 30.675C-1.40416 29.0792 0.987507 23.3042 4.83751 24.9L16.6583 29.7958C20.5083 31.3917 18.1167 37.1667 14.2667 35.5708ZM30.1542 2.94999L35.05 14.7708C36.6458 18.6208 30.8708 21.0125 29.275 17.1625L24.3792 5.34166C22.7833 1.49166 28.5583 -0.900009 30.1542 2.94999ZM58.6792 71.8125L63.575 83.6333C65.1708 87.4833 59.3958 89.875 57.8 86.025L52.9042 74.2042C51.3083 70.3542 57.0833 67.9625 58.6792 71.8125Z" fill="#FFB300"/>
<defs>
<linearGradient id="paint0_linear_403_2" x1="44" y1="23.6666" x2="44" y2="64.7779" gradientUnits="userSpaceOnUse">
<stop stop-color="#FFC227"/>
<stop offset="1" stop-color="#FFB300"/>
</linearGradient>
</defs>
</svg>
